<svg width="51" height="68" viewBox="0 0 51 68" fill="none" xmlns="http://www.w3.org/2000/svg">
<g clip-path="url(#clip0_110_52)">
<path d="M50.4887 67.8455C50.2478 67.9917 49.9587 68.0363 49.685 67.9693C49.4113 67.9024 49.1754 67.7295 49.0292 67.4887L32.3838 40.0726C33.0554 39.8062 33.6478 39.3726 34.1048 38.8129L50.8455 66.3858C50.918 66.5051 50.9662 66.6375 50.9874 66.7754C51.0087 66.9133 51.0026 67.054 50.9695 67.1896C50.9363 67.3251 50.8768 67.4528 50.7943 67.5654C50.7118 67.6779 50.608 67.7731 50.4887 67.8455ZM18.966 41.748L14.6443 53.6327L19.4415 65.3581C20.3304 67.5309 22.8119 68.5711 24.9842 67.6824C27.1566 66.7937 28.1973 64.3122 27.3085 62.1396L18.966 41.748ZM12.75 11.6875C15.9775 11.6875 18.5938 9.07123 18.5938 5.84375C18.5938 2.61627 15.9775 0 12.75 0C9.52252 0 6.90625 2.61627 6.90625 5.84375C6.90625 9.07123 9.52252 11.6875 12.75 11.6875ZM33.3143 34.1498L17.3768 13.9623C16.7482 13.1661 15.8162 12.7527 14.875 12.7521V12.75H10.625V12.7535C9.67592 12.7539 8.7368 13.1733 8.109 13.9806L0 24.4064V37.1158C0 38.9028 1.4624 40.4083 3.24913 40.3745C4.98113 40.3415 6.375 38.9273 6.375 37.1875V26.5936L8.5 23.8615V42.5479L1.31843 62.2964C0.516242 64.5023 1.65418 66.9407 3.8602 67.7429C6.06515 68.5449 8.50438 67.4077 9.3067 65.2011L18.0625 41.1238V26.8867L13.8914 21.5986C13.848 21.544 13.8159 21.4813 13.7968 21.4142C13.7776 21.3471 13.7719 21.2769 13.7799 21.2076C13.7879 21.1383 13.8095 21.0712 13.8434 21.0102C13.8773 20.9493 13.9229 20.8956 13.9776 20.8522C14.0323 20.8089 14.0949 20.7767 14.162 20.7576C14.2291 20.7385 14.2993 20.7327 14.3686 20.7407C14.5086 20.7569 14.6364 20.828 14.724 20.9384L28.3107 38.1001C29.5253 39.6386 31.5471 39.606 32.7876 38.6267C34.1701 37.5355 34.4024 35.5276 33.3143 34.1498Z" fill="#8F546B"/>
</g>
<defs>
<clipPath id="clip0_110_52">
<rect width="51" height="68" fill="white"/>
</clipPath>
</defs>
</svg>
