<svg width="70" height="70" viewBox="0 0 70 70" fill="none" xmlns="http://www.w3.org/2000/svg">
<path d="M24.4622 14.8167C24.0105 14.0699 23.5239 13.3448 23.0039 12.6438C26.4885 10.1065 30.6897 8.74292 35.0002 8.75003C38.8502 8.75003 42.4522 9.81461 45.5235 11.6667C45.2898 13.0094 44.8155 14.2988 44.1235 15.4729C43.9835 15.6975 43.4002 16.2692 42.3385 17.0596C41.866 17.4096 41.3439 17.7334 40.7168 18.1096L40.501 18.235C39.9556 18.5617 39.3285 18.935 38.7247 19.3492C37.3014 20.3234 35.8197 21.6417 34.8222 23.7738C34.2044 25.1027 34.0803 26.6083 34.4722 28.0204C34.5743 28.4142 34.6297 28.8079 34.6327 29.1579C34.6327 29.2659 34.5889 29.4379 34.3497 29.6392C34.0803 29.8591 33.7438 29.9805 33.396 29.9834C30.2547 29.9484 27.7756 27.3467 27.4168 23.1963C27.1427 20.0404 25.8535 17.1209 24.4622 14.8167ZM48.5685 42.3179C49.3385 42.3092 50.0618 42.2596 50.7414 42.1721C48.1483 45.3105 44.6769 47.6028 40.7722 48.755C40.6381 47.6438 40.7256 46.305 41.3818 45.0713C41.9418 44.0154 43.3593 43.225 45.2727 42.7554C46.333 42.4991 47.4169 42.3525 48.5072 42.3179H48.5422H48.5685Z" fill="#8F546B"/>
<path d="M14.583 29.1666C14.583 24.1499 16.3913 19.5591 19.3897 16.0066C19.6872 16.4237 19.9818 16.8729 20.2676 17.3483C21.4401 19.2849 22.3472 21.4783 22.5338 23.6191C23.0297 29.3649 26.8534 34.8104 33.3401 34.8833C36.143 34.9124 39.5409 32.8066 39.5322 29.1433C39.5322 28.3062 39.398 27.4895 39.2055 26.7662C39.1086 26.4638 39.1284 26.136 39.2609 25.8475C39.7568 24.7858 40.4918 24.077 41.4951 23.3916C41.9618 23.0708 42.4459 22.7791 43.0059 22.4466L43.2305 22.3124C43.8605 21.9362 44.5751 21.5016 45.2663 20.9883C46.2726 20.2387 47.5705 19.1858 48.2618 18.1008C48.8072 17.2433 49.3118 16.1437 49.7026 15.0004C53.3744 18.8014 55.4235 23.8817 55.4163 29.1666C55.4163 30.7183 55.2413 32.2291 54.9147 33.6875C54.7213 34.3005 54.4222 34.8749 54.0309 35.3849C53.3397 36.2804 51.9543 37.3829 48.5184 37.4179H48.4105L48.1305 37.4266C46.7715 37.484 45.4215 37.6745 44.0997 37.9954C41.8859 38.5379 38.6426 39.7745 37.0501 42.7758C35.7959 45.1412 35.6501 47.5737 35.9359 49.5629C33.1791 49.6882 30.4254 49.2535 27.8412 48.2852C25.2569 47.3168 22.8957 45.8347 20.9001 43.9285C18.9045 42.0224 17.3159 39.7315 16.2302 37.1944C15.1444 34.6572 14.5841 31.9263 14.583 29.1666Z" fill="#8F546B"/>
<path fill-rule="evenodd" clip-rule="evenodd" d="M52.5117 4.37501C52.8984 3.94348 53.4405 3.683 54.019 3.65074C54.5975 3.61847 55.1652 3.81707 55.5975 4.20293C58.9853 7.2264 61.6952 10.9324 63.549 15.0775C65.4029 19.2226 66.3589 23.713 66.3542 28.2538C66.3542 45.0275 53.5529 58.8146 37.1875 60.375V61.9792H40.8333C41.4135 61.9792 41.9699 62.2096 42.3801 62.6199C42.7904 63.0301 43.0208 63.5865 43.0208 64.1667C43.0208 64.7468 42.7904 65.3032 42.3801 65.7135C41.9699 66.1237 41.4135 66.3542 40.8333 66.3542H29.1667C28.5865 66.3542 28.0301 66.1237 27.6199 65.7135C27.2096 65.3032 26.9792 64.7468 26.9792 64.1667C26.9792 63.5865 27.2096 63.0301 27.6199 62.6199C28.0301 62.2096 28.5865 61.9792 29.1667 61.9792H32.8125V60.4946C28.4901 60.3285 24.2455 59.2929 20.3322 57.4498C16.4189 55.6066 12.9172 52.9937 10.0363 49.7671C9.84279 49.5533 9.69349 49.3034 9.59695 49.0317C9.50041 48.76 9.45854 48.4719 9.47375 48.1839C9.48895 47.896 9.56093 47.6139 9.68554 47.3539C9.81015 47.0939 9.98493 46.8611 10.1998 46.6688C10.4148 46.4766 10.6655 46.3288 10.9378 46.2338C11.2101 46.1389 11.4984 46.0987 11.7862 46.1155C12.0741 46.1324 12.3557 46.206 12.615 46.3321C12.8743 46.4583 13.1061 46.6344 13.2971 46.8504C15.9105 49.7789 19.114 52.1212 22.6972 53.7232C26.2804 55.3253 30.1621 56.1509 34.0871 56.1458C41.4845 56.1458 48.579 53.2072 53.8098 47.9764C59.0406 42.7457 61.9792 35.6512 61.9792 28.2538C61.9839 24.3285 61.1578 20.4467 59.5552 16.8635C57.9527 13.2803 55.6099 10.0769 52.6808 7.46376C52.4663 7.2722 52.2917 7.04022 52.1669 6.7811C52.0421 6.52197 51.9696 6.24077 51.9537 5.95361C51.9377 5.66645 51.9785 5.37895 52.0737 5.10758C52.169 4.8362 52.3168 4.58627 52.5088 4.37209" fill="#8F546B"/>
</svg>
