<svg width="70" height="70" viewBox="0 0 70 70" fill="none" xmlns="http://www.w3.org/2000/svg">
<path d="M35.0003 8.75L67.0837 32.8125L63.5837 37.4792L58.3337 33.5417V61.25H11.667V33.5417L6.41699 37.4792L2.91699 32.8125L35.0003 8.75ZM21.4378 35.1458C21.4378 37.7222 22.8232 40.4688 25.5941 43.3854C28.3649 46.3021 31.5003 49.3403 35.0003 52.5C38.5003 49.3403 41.6357 46.3021 44.4066 43.3854C47.1774 40.4688 48.5628 37.7222 48.5628 35.1458C48.5628 33.0069 47.8337 31.2326 46.3753 29.8229C44.917 28.4132 43.167 27.7083 41.1253 27.7083C39.8614 27.7083 38.7064 27.964 37.6603 28.4754C36.6142 28.9868 35.7275 29.6547 35.0003 30.4792C34.2712 29.6528 33.3602 28.9849 32.2674 28.4754C31.1746 27.966 30.0439 27.7103 28.8753 27.7083C26.8337 27.7083 25.0837 28.4132 23.6253 29.8229C22.167 31.2326 21.4378 33.0069 21.4378 35.1458ZM52.5003 55.4167V29.1667L35.0003 16.0417L17.5003 29.1667V55.4167H52.5003Z" fill="#8F546B"/>
</svg>
