<svg width="70" height="70" viewBox="0 0 70 70" fill="none" xmlns="http://www.w3.org/2000/svg">
<path d="M61.9418 15.4246L35.6918 6.67459C35.2427 6.52489 34.7573 6.52489 34.3082 6.67459L8.0582 15.4246C7.62263 15.5698 7.24379 15.8484 6.97535 16.2208C6.7069 16.5933 6.56247 17.0408 6.5625 17.5V39.375C6.5625 39.9551 6.79297 40.5115 7.2032 40.9218C7.61344 41.332 8.16984 41.5625 8.75 41.5625C9.33016 41.5625 9.88656 41.332 10.2968 40.9218C10.707 40.5115 10.9375 39.9551 10.9375 39.375V20.5351L20.1223 23.5949C17.682 27.5373 16.906 32.287 17.9647 36.8011C19.0233 41.3152 21.8301 45.2247 25.7687 47.6711C20.8469 49.6015 16.5922 53.0933 13.4805 57.8676C13.3186 58.1081 13.2062 58.3784 13.1498 58.6627C13.0933 58.9471 13.094 59.2398 13.1516 59.5239C13.2093 59.808 13.3229 60.0778 13.4858 60.3177C13.6486 60.5575 13.8575 60.7625 14.1004 60.9209C14.3432 61.0793 14.615 61.1878 14.9002 61.2402C15.1853 61.2926 15.478 61.2878 15.7613 61.226C16.0445 61.1643 16.3127 61.0469 16.5501 60.8806C16.7876 60.7143 16.9896 60.5025 17.1445 60.2574C21.2652 53.9355 27.773 50.3125 35 50.3125C42.2269 50.3125 48.7348 53.9355 52.8555 60.2574C53.1763 60.7343 53.6719 61.0657 54.2352 61.18C54.7984 61.2944 55.384 61.1825 55.8654 60.8685C56.3468 60.5545 56.6853 60.0637 56.8077 59.5021C56.9301 58.9406 56.8266 58.3534 56.5195 57.8676C53.4078 53.0933 49.1367 49.6015 44.2312 47.6711C48.1661 45.2248 50.9702 41.3178 52.0287 36.8071C53.0872 32.2963 52.3137 27.5499 49.8777 23.6086L61.9418 19.589C62.3775 19.4439 62.7564 19.1654 63.0249 18.7929C63.2935 18.4204 63.438 17.9728 63.438 17.5137C63.438 17.0545 63.2935 16.6069 63.0249 16.2344C62.7564 15.8619 62.3775 15.5834 61.9418 15.4383V15.4246ZM48.125 32.8125C48.1256 34.8875 47.6342 36.933 46.6911 38.7814C45.7481 40.6297 44.3802 42.228 42.6998 43.4453C41.0194 44.6626 39.0743 45.4642 37.0241 45.7842C34.974 46.1042 32.8771 45.9335 30.9057 45.2863C28.9342 44.639 27.1443 43.5335 25.6829 42.0605C24.2214 40.5875 23.13 38.789 22.4982 36.8125C21.8664 34.836 21.7122 32.7379 22.0483 30.6903C22.3844 28.6427 23.2012 26.704 24.4316 25.0332L34.3082 28.3144C34.7573 28.4641 35.2427 28.4641 35.6918 28.3144L45.5684 25.0332C47.2303 27.2863 48.1263 30.0127 48.125 32.8125ZM35 23.9449L15.668 17.5L35 11.0551L54.332 17.5L35 23.9449Z" fill="#8F546B"/>
</svg>
