<svg width="70" height="70" viewBox="0 0 70 70" fill="none" xmlns="http://www.w3.org/2000/svg">
<path d="M35 11.6667C32.2926 11.6667 29.6961 12.7422 27.7816 14.6567C25.8672 16.5711 24.7917 19.1676 24.7917 21.875C24.7917 24.5825 25.8672 27.179 27.7816 29.0934C29.6961 31.0079 32.2926 32.0834 35 32.0834C37.7074 32.0834 40.3039 31.0079 42.2184 29.0934C44.1328 27.179 45.2083 24.5825 45.2083 21.875C45.2083 19.1676 44.1328 16.5711 42.2184 14.6567C40.3039 12.7422 37.7074 11.6667 35 11.6667ZM18.9583 21.875C18.9583 17.6205 20.6484 13.5403 23.6568 10.5319C26.6652 7.52347 30.7455 5.83337 35 5.83337C39.2545 5.83337 43.3348 7.52347 46.3432 10.5319C49.3516 13.5403 51.0417 17.6205 51.0417 21.875C51.0417 26.1296 49.3516 30.2098 46.3432 33.2182C43.3348 36.2266 39.2545 37.9167 35 37.9167C30.7455 37.9167 26.6652 36.2266 23.6568 33.2182C20.6484 30.2098 18.9583 26.1296 18.9583 21.875ZM8.75 55.4167C8.75 51.549 10.2865 47.8396 13.0214 45.1047C15.7563 42.3698 19.4656 40.8334 23.3333 40.8334H46.6667C50.5344 40.8334 54.2437 42.3698 56.9786 45.1047C59.7135 47.8396 61.25 51.549 61.25 55.4167V64.1667H8.75V55.4167ZM23.3333 46.6667C21.0127 46.6667 18.7871 47.5886 17.1461 49.2295C15.5052 50.8705 14.5833 53.0961 14.5833 55.4167V58.3334H30.9546L27.0638 46.6667H23.3333ZM33.2121 46.6667L35 52.0275L36.7879 46.6667H33.2121ZM42.9362 46.6667L39.0454 58.3334H55.4167V55.4167C55.4167 53.0961 54.4948 50.8705 52.8539 49.2295C51.2129 47.5886 48.9873 46.6667 46.6667 46.6667H42.9362Z" fill="#8F546B"/>
</svg>
