<svg width="70" height="70" viewBox="0 0 70 70" fill="none" xmlns="http://www.w3.org/2000/svg">
<path d="M17.5003 55.5625L23.2607 53.2292C22.7746 51.8195 22.3255 50.3854 21.9132 48.9271C21.501 47.4688 21.1724 46.0104 20.9274 44.5521L17.5003 46.8854V55.5625ZM29.167 52.5H40.8337C41.7087 50.5556 42.4135 48.1863 42.9482 45.3921C43.483 42.5979 43.7503 39.7415 43.7503 36.8229C43.7503 32.0104 42.9482 27.4536 41.3441 23.1525C39.7399 18.8514 37.6253 15.5332 35.0003 13.1979C32.3753 15.5313 30.2607 18.8495 28.6566 23.1525C27.0524 27.4556 26.2503 32.0124 26.2503 36.8229C26.2503 39.7396 26.5177 42.596 27.0524 45.3921C27.5871 48.1882 28.292 50.5575 29.167 52.5ZM35.0003 37.9167C33.3962 37.9167 32.0234 37.346 30.882 36.2046C29.7406 35.0632 29.1689 33.6895 29.167 32.0834C29.165 30.4772 29.7367 29.1045 30.882 27.965C32.0273 26.8256 33.4 26.2539 35.0003 26.25C36.6006 26.2461 37.9744 26.8178 39.1216 27.965C40.2688 29.1122 40.8395 30.485 40.8337 32.0834C40.8278 33.6817 40.2571 35.0554 39.1216 36.2046C37.986 37.3538 36.6123 37.9245 35.0003 37.9167ZM52.5003 55.5625V46.8854L49.0732 44.5521C48.8302 46.0104 48.5025 47.4688 48.0903 48.9271C47.6781 50.3854 47.228 51.8195 46.7399 53.2292L52.5003 55.5625ZM35.0003 5.76044C39.8128 9.26044 43.447 13.7084 45.9028 19.1042C48.3587 24.5 49.5856 30.7709 49.5837 37.9167L55.7087 42C56.535 42.5347 57.1796 43.2396 57.6424 44.1146C58.1052 44.9896 58.3356 45.9132 58.3337 46.8854V64.1667L43.8232 58.3334H26.1774L11.667 64.1667V46.8854C11.667 45.9132 11.8984 44.9896 12.3612 44.1146C12.8239 43.2396 13.4675 42.5347 14.292 42L20.417 37.9167C20.417 30.7709 21.6449 24.5 24.1007 19.1042C26.5566 13.7084 30.1898 9.26044 35.0003 5.76044Z" fill="#8F546B"/>
</svg>
