<svg width="108" height="71" viewBox="0 0 108 71" fill="none" xmlns="http://www.w3.org/2000/svg">
<g clip-path="url(#clip0_105_125)">
<path d="M34.0261 67.5762V70.5633H15.3018V36.9892H0.435547V0.917084H4.23266V34.0108H19.0989V67.5762H34.0261Z" fill="#A44D98" stroke="white" stroke-opacity="0.5" stroke-miterlimit="10"/>
<path d="M19.0726 0.917084V30.3512H15.2842V0.917084H19.0726Z" fill="#A44D98" stroke="white" stroke-opacity="0.5" stroke-miterlimit="10"/>
<path d="M25.6914 30.3512V0.917084H29.8282L39.2339 15.7652C41.2012 18.8482 42.9642 22.0576 44.5115 25.3727H44.5986C44.2502 21.4424 44.1631 17.8614 44.1631 13.2759V0.917084H47.7338V30.3512H43.8845L34.5746 15.4158C32.5474 12.2543 30.7123 8.97302 29.0792 5.58986H28.9486C29.1663 9.30188 29.2534 12.8392 29.2534 17.7303V30.3075L25.6914 30.3512Z" fill="#A44D98" stroke="white" stroke-opacity="0.5" stroke-miterlimit="10"/>
<path d="M76.6829 29.0236C73.7902 30.0665 70.7429 30.6127 67.6691 30.6395C63.2275 30.6395 59.5697 29.504 56.6958 26.7528C54.1702 24.3072 52.6025 20.3768 52.6025 15.7914C52.6025 7.05722 58.6553 0.593937 68.4964 0.593937C71.002 0.533543 73.4929 0.994499 75.812 1.94773L74.9411 5.04836C72.897 4.15446 70.682 3.72211 68.4529 3.78191C61.3115 3.78191 56.6522 8.23633 56.6522 15.6167C56.6522 22.9971 61.1373 27.4952 67.9739 27.4952C69.6938 27.589 71.4144 27.3213 73.0251 26.7091V17.9749H67.0159V14.918H76.6829V29.0236Z" fill="#A44D98" stroke="white" stroke-opacity="0.5" stroke-miterlimit="10"/>
<path d="M107.556 15.3285C107.556 25.4601 101.416 30.8316 93.9265 30.8316C86.1755 30.8316 80.7324 24.805 80.7324 15.8962C80.7324 6.55062 86.5239 0.436707 94.362 0.436707C102.374 0.436707 107.556 6.59429 107.556 15.3285ZM84.8169 15.8088C84.8169 22.0974 88.2134 27.731 94.1791 27.731C100.145 27.731 103.585 22.1848 103.585 15.5031C103.585 9.65125 100.537 3.53733 94.2226 3.53733C87.9086 3.53733 84.8169 9.34555 84.8169 15.8088Z" fill="#A44D98" stroke="white" stroke-opacity="0.5" stroke-miterlimit="10"/>
<path d="M34.0257 34.0108V63.445H30.2373V34.0108H34.0257Z" fill="#A44D98" stroke="white" stroke-opacity="0.5" stroke-miterlimit="10"/>
<path d="M40.6445 63.445V34.0108H44.7552L54.1609 48.9026C56.109 51.9727 57.8546 55.1675 59.3862 58.4665H59.4733C59.125 54.5361 59.0379 50.9551 59.0379 46.3697V34.0108H62.6086V63.445H58.7766L49.458 48.5095C47.4338 45.3478 45.6016 42.0666 43.9714 38.6836H43.8407C44.0585 42.3956 44.1455 45.933 44.1455 50.8241V63.4013L40.6445 63.445Z" fill="#A44D98" stroke="white" stroke-opacity="0.5" stroke-miterlimit="10"/>
<path d="M69.2969 34.0108H73.0853V48.2388H73.2159C73.9997 47.1033 74.7835 46.0552 75.5238 45.0945L84.494 34.0458H89.1708L78.5719 46.492L90.0417 63.445H85.5565L75.8722 48.9899L73.0853 52.2216V63.445H69.2969V34.0108Z" fill="#A44D98" stroke="white" stroke-opacity="0.5" stroke-miterlimit="10"/>
</g>
<defs>
<clipPath id="clip0_105_125">
<rect width="108" height="71" fill="white"/>
</clipPath>
</defs>
</svg>
